<svg t="1715587392766" class="icon" viewBox="0 0 1024 1024" version="1.1" xmlns="http://www.w3.org/2000/svg" p-id="2374" width="200" height="200"><path d="M768 925.866667H256c-141.141333 0-256-114.858667-256-256 0-67.754667 26.496-132.010667 74.624-180.821334C123.989333 440.362667 188.202667 413.866667 256 413.866667c0-169.386667 137.813333-307.2 307.2-307.2s307.2 137.813333 307.2 307.2c0 7.082667-0.256 14.08-0.682667 20.992C962.517333 474.496 1024 565.418667 1024 669.866667c0 141.141333-114.858667 256-256 256zM256 516.266667c-40.704 0-79.445333 16.042667-108.970667 45.141333C118.442667 590.464 102.4 629.162667 102.4 669.866667c0 84.693333 68.906667 153.6 153.6 153.6h512c84.693333 0 153.6-68.906667 153.6-153.6 0-72.405333-49.237333-133.930667-119.68-149.717334-0.512-0.085333-0.981333-0.256-1.493333-0.341333-9.429333-2.346667-20.352-3.541333-32.384-3.541333-28.288 0-51.2-22.912-51.2-51.2s22.912-51.2 51.2-51.2c0-112.938667-91.861333-204.8-204.8-204.8s-204.8 91.861333-204.8 204.8c0 14.72 1.322667 28.288 3.968 40.277333 3.285333 15.146667-0.426667 30.976-10.154667 43.008a51.2 51.2 0 0 1-39.893333 19.114667H256z" p-id="2375" fill="currentColor"></path><path d="M563.2 721.066667c-28.288 0-51.2-22.912-51.2-51.2 0-141.141333 114.858667-256 256-256 28.288 0 51.2 22.912 51.2 51.2s-22.912 51.2-51.2 51.2c-84.693333 0-153.6 68.906667-153.6 153.6 0 28.288-22.912 51.2-51.2 51.2z" p-id="2376" fill="currentColor"></path></svg>