<svg t="1731156028238" class="icon" viewBox="0 0 1024 1024" version="1.1" xmlns="http://www.w3.org/2000/svg" p-id="5068" width="200" height="200"><path d="M512 0c282.331429 0 512 229.668571 512 512S794.331429 1024 512 1024 0 794.331429 0 512 229.668571 0 512 0z" fill="#FFE3D2" p-id="5069"></path><path d="M768 725.577143c-14.628571 0-26.331429 11.702857-26.331429 26.331428s11.702857 26.331429 26.331429 26.331429 26.331429-11.702857 26.331429-26.331429-11.702857-26.331429-26.331429-26.331428zM614.4 381.805714c0-55.588571-45.348571-100.937143-100.937143-100.937143-55.588571 0-100.937143 45.348571-100.937143 100.937143 0 55.588571 45.348571 100.937143 100.937143 100.937143 55.588571 0 100.937143-45.348571 100.937143-100.937143z m251.611429 336.457143l-87.771429-473.965714c-4.388571-30.72-30.72-52.662857-62.902857-52.662857H308.662857c-32.182857 1.462857-58.514286 23.405714-62.902857 54.125714l-87.771429 472.502857c-2.925714 10.24-5.851429 20.48-5.851428 32.182857 0 57.051429 45.348571 81.92 102.4 81.92h513.462857c57.051429 0 102.4-26.331429 102.4-81.92 1.462857-11.702857-1.462857-21.942857-4.388571-32.182857zM384.731429 383.268571c0-71.68 58.514286-130.194286 130.194285-130.194285s130.194286 58.514286 130.194286 130.194285c0 48.274286-26.331429 90.697143-65.828571 112.64 38.034286 16.091429 76.068571 65.828571 92.16 103.862858h-30.72c-1.462857-2.925714-2.925714-5.851429-4.388572-7.314286-1.462857-2.925714-2.925714-4.388571-4.388571-7.314286-1.462857-1.462857-1.462857-2.925714-2.925715-2.925714-1.462857-1.462857-2.925714-2.925714-2.925714-4.388572l-2.925714-2.925714-4.388572-4.388571-2.925714-2.925715-4.388571-4.388571-4.388572-4.388571-2.925714-2.925715c-1.462857-1.462857-4.388571-2.925714-5.851429-5.851428l-1.462857-1.462857c-2.925714-1.462857-4.388571-4.388571-7.314285-5.851429h-1.462858c-2.925714-1.462857-5.851429-4.388571-8.777142-5.851429-19.017143-13.165714-39.497143-23.405714-52.662858-23.405714h-24.868571H497.371429 492.982857c-26.331429 1.462857-78.994286 48.274286-100.937143 89.234286h-30.72c16.091429-38.034286 54.125714-87.771429 92.16-103.862857-42.422857-24.868571-68.754286-67.291429-68.754285-115.565715zM772.388571 804.571429H239.908571c-27.794286 0-51.2-27.794286-52.662857-48.274286 0-27.794286 17.554286-70.217143 45.348572-70.217143h533.942857c27.794286 0 65.828571 16.091429 64.365714 74.605714-4.388571 36.571429-30.72 43.885714-58.514286 43.885715z" fill="#FFA169" p-id="5070"></path></svg>